<?xml version="1.0" ?><svg contentScriptType="text/ecmascript" contentStyleType="text/css" enable-background="new 0 0 2048 2048" height="2048px" id="Layer_1" preserveAspectRatio="xMidYMid meet" version="1.1" viewBox="44.0 0 1576.0 2048" width="1576.0px" xml:space="preserve" xmlns="http://www.w3.org/2000/svg" xmlns:xlink="http://www.w3.org/1999/xlink" zoomAndPan="magnify"><path d="M1620,536c-44.667,65.333-98.667,121-162,167c0.667,9.333,1,23.333,1,42c0,86.667-12.667,173.167-38,259.5  s-63.833,169.167-115.5,248.5s-113.167,149.5-184.5,210.5s-157.333,109.667-258,146S654.667,1664,540,1664  c-180.667,0-346-48.333-496-145c23.333,2.667,49.333,4,78,4c150,0,283.667-46,401-138c-70-1.333-132.667-22.833-188-64.5  s-93.333-94.833-114-159.5c22,3.333,42.333,5,61,5c28.667,0,57-3.667,85-11c-74.667-15.333-136.5-52.5-185.5-111.5S108,916,108,838  v-4c45.333,25.333,94,39,146,41c-44-29.333-79-67.667-105-115s-39-98.667-39-154c0-58.667,14.667-113,44-163  c80.667,99.333,178.833,178.833,294.5,238.5C564.167,741.167,688,774.333,820,781c-5.333-25.333-8-50-8-74  c0-89.333,31.5-165.5,94.5-228.5S1045.667,384,1135,384c93.333,0,172,34,236,102c72.667-14,141-40,205-78  c-24.667,76.667-72,136-142,178C1496,579.333,1558,562.667,1620,536z"/></svg>