<?xml version="1.0" ?><svg contentScriptType="text/ecmascript" contentStyleType="text/css" enable-background="new 0 0 2048 2048" height="2048px" id="Layer_1" preserveAspectRatio="xMidYMid meet" version="1.1" viewBox="0.0 0 1920.0 2048" width="1920.0px" xml:space="preserve" xmlns="http://www.w3.org/2000/svg" xmlns:xlink="http://www.w3.org/1999/xlink" zoomAndPan="magnify"><path d="M1920,1280c0,106-37.5,196.5-112.5,271.5S1642,1664,1536,1664H448c-123.333,0-228.833-43.833-316.5-131.5S0,1339.333,0,1216  c0-88,23.667-168.5,71-241.5S180.667,847,258,811c-1.333-18.667-2-33-2-43c0-141.333,50-262,150-362s220.667-150,362-150  c105.333,0,200.833,29.333,286.5,88s148.167,135.333,187.5,230c46.667-41.333,102-62,166-62c70.667,0,131,25,181,75  s75,110.333,75,181c0,50-13.667,96-41,138c86,20,157,64.833,213,134.5S1920,1190,1920,1280z"/></svg>