<?xml version="1.0" ?><svg contentScriptType="text/ecmascript" contentStyleType="text/css" enable-background="new 0 0 2048 2048" height="2048px" id="Layer_1" preserveAspectRatio="xMidYMid meet" version="1.1" viewBox="0.0 0 1536.0 2048" width="1536.0px" xml:space="preserve" xmlns="http://www.w3.org/2000/svg" xmlns:xlink="http://www.w3.org/1999/xlink" zoomAndPan="magnify"><path d="M1362,1554V906h-135c13.333,42,20,85.667,20,131c0,84-21.333,161.5-64,232.5s-100.667,127.167-174,168.5s-153.333,62-240,62  c-131.333,0-243.667-45.167-337-135.5S292,1165,292,1037c0-45.333,6.667-89,20-131H171v648c0,17.333,5.833,31.833,17.5,43.5  s26.167,17.5,43.5,17.5h1069c16.667,0,31-5.833,43-17.5S1362,1571.333,1362,1554z M1078,1021c0-82.667-30.167-153.167-90.5-211.5  C927.167,751.167,854.333,722,769,722c-84.667,0-157.167,29.167-217.5,87.5S461,938.333,461,1021s30.167,153.167,90.5,211.5  S684.333,1320,769,1320c85.333,0,158.167-29.167,218.5-87.5C1047.833,1174.167,1078,1103.667,1078,1021z M1362,661V496  c0-18.667-6.667-34.833-20-48.5s-29.667-20.5-49-20.5h-174c-19.333,0-35.667,6.833-49,20.5s-20,29.833-20,48.5v165  c0,19.333,6.667,35.667,20,49s29.667,20,49,20h174c19.333,0,35.667-6.667,49-20S1362,680.333,1362,661z M1536,453v1142  c0,54-19.333,100.333-58,139s-85,58-139,58H197c-54,0-100.333-19.333-139-58s-58-85-58-139V453c0-54,19.333-100.333,58-139  s85-58,139-58h1142c54,0,100.333,19.333,139,58S1536,399,1536,453z"/></svg>