<svg xmlns="http://www.w3.org/2000/svg" width="85" height="71" viewBox="0 0 85 71">
  <defs>
    <style>
      .cls-1 {
        fill: #60ba62;
        fill-rule: evenodd;
      }
    </style>
  </defs>
  <path id="Delivery-icon" class="cls-1" d="M74.4,49.679a10.647,10.647,0,1,1-8.155,3.869l-2.653-2.672A14.213,14.213,0,0,0,60.238,62.52l0.139,0.931H32.784a10.581,10.581,0,0,1-20.721-3.106c0-.136.021-0.269,0.026-0.4H9.1l0.082-.886A13.54,13.54,0,0,1,16.256,48.33H5.092V47.249H0V27.538H19.571V40.632a4.737,4.737,0,0,1,3.307-1.352H24.8a10.563,10.563,0,0,1,.943-13.787L38.494,12.963l4.442,4.584H62.068v7.56H39.958l-7.43,7.3a0.736,0.736,0,0,0-.191.456L47.7,37.769l2.27,18.66h1.315A23.7,23.7,0,0,1,66.548,38.1l0.69-16.233H64.348v-1.62h4.3l0.2-.035,0.014,0.035h0.045v0.111l4.531,11.234a4.37,4.37,0,0,1,1.5-.275,4.452,4.452,0,0,1,1.817,8.5l2.811,6.969-1.552-.408a14.079,14.079,0,0,0-13.3,3.337l2.653,2.672A10.494,10.494,0,0,1,74.4,49.679ZM22.655,69.391a9.024,9.024,0,0,0,8.982-9.046c0-.135-0.021-0.269-0.027-0.4H27.855c0.01,0.135.027,0.269,0.027,0.4a5.228,5.228,0,1,1-10.456,0c0-.136.017-0.27,0.027-0.4H13.7c-0.006.136-.026,0.269-0.026,0.4A9.025,9.025,0,0,0,22.655,69.391Zm3.619-9.046a3.667,3.667,0,0,0-.055-0.4H19.09A3.606,3.606,0,1,0,26.274,60.345ZM17.962,29.158H1.607V45.629H17.962V29.158ZM10.9,58.32H34.414a11.892,11.892,0,0,0-11.749-9.99h-0.02A11.891,11.891,0,0,0,10.9,58.32Zm24.731-1.89h4.619l-0.984-8.1H29.072A13.508,13.508,0,0,1,35.626,56.43ZM22.878,40.9a3.183,3.183,0,0,0-3.169,3.19v2.62H39.064l-0.19-1.561-12.3-3.925L26.256,40.9H22.878ZM46.23,39L31,34.137l-0.134-.379a2.488,2.488,0,0,1-.141-0.819,2.421,2.421,0,0,1,.672-1.682l6.257-6.148h-3.2v-1.62H39.3l0.11-.108,0.1,0.108H60.46v-4.32H42.393l-0.069.068-0.066-.068H40.082v-1.62h0.606l-2.222-2.293L26.876,26.644a8.955,8.955,0,0,0,.007,12.6L27.437,39.8l12.908,4.12,1.447,11.9,6.387-.788Zm31.524-3.227a2.829,2.829,0,0,0-2.815-2.835,2.781,2.781,0,0,0-.9.155l2.109,5.229A2.832,2.832,0,0,0,77.754,35.773ZM74.4,44.278a15.326,15.326,0,0,1,2.5.21l-1.727-4.282c-0.079,0-.157.022-0.237,0.022V39.619l-6.191-15.35L68.108,39.28l-0.529.175A22.063,22.063,0,0,0,52.773,57.349l-0.095.7H35.989c0.055,0.332.109,0.664,0.141,1l0.083,0.886h-3c0.005,0.136.027,0.27,0.027,0.4a10.734,10.734,0,0,1-.115,1.486h25.4a14.5,14.5,0,0,1-.08-1.486,16.054,16.054,0,0,1,4.4-11.045,0.79,0.79,0,0,1,.127-0.193,0.77,0.77,0,0,1,.118-0.079A15.849,15.849,0,0,1,74.4,44.278ZM65.42,60.345A8.982,8.982,0,1,0,74.4,51.3a8.9,8.9,0,0,0-5.893,2.236l2.674,2.693A5.154,5.154,0,0,1,74.4,55.08,5.257,5.257,0,1,1,70.072,57.4l-2.678-2.7A9.035,9.035,0,0,0,65.42,60.345Zm8.88,0.168a0.8,0.8,0,0,1-1.138,0l-1.912-1.925A3.6,3.6,0,1,0,74.4,56.7a3.574,3.574,0,0,0-2.082.673l1.98,1.994A0.814,0.814,0,0,1,74.3,60.512ZM44.574,15.527a7.768,7.768,0,1,1,7.711-7.768A7.749,7.749,0,0,1,44.574,15.527Zm0-13.916a6.148,6.148,0,1,0,6.1,6.148A6.133,6.133,0,0,0,44.574,1.611Zm-29.829,20.8H5.092v-1.62h9.653v1.62Zm-1.073-7.291h18.5v1.62h-18.5v-1.62Z"/>
</svg>
