<svg xmlns="http://www.w3.org/2000/svg" width="90" height="70" viewBox="0 0 90 70">
  <defs>
    <style>
      .cls-1 {
        fill: #60ba62;
        fill-rule: evenodd;
      }
    </style>
  </defs>
  <path id="Eat_and_Enjoy" data-name="Eat and Enjoy" class="cls-1" d="M60.175,34.581l-1.221-1.192L88.789,2.783l1.222,1.191Zm-6.112-3.246L73.888,0,75.33,0.913,55.5,32.248ZM46.6,23.958c1.943-2.4.983-4.771-.128-7.515-1.146-2.834-2.446-6.046.128-9.226L47.931,8.29c-1.941,2.4-.982,4.769.128,7.512,1.147,2.835,2.447,6.048-.128,9.229Zm-9.089,0c1.943-2.4.983-4.771-.127-7.515-1.147-2.834-2.446-6.046.127-9.226L38.842,8.29c-1.941,2.4-.982,4.769.128,7.512,1.146,2.835,2.447,6.048-.128,9.229Zm-9.09,0c1.944-2.4.984-4.771-.127-7.516-1.147-2.834-2.447-6.045.127-9.225L29.752,8.29c-1.941,2.4-.982,4.768.128,7.511,1.147,2.835,2.448,6.048-.128,9.23ZM88.459,37.191A46.829,46.829,0,0,1,60.573,64.9a4.146,4.146,0,0,1,.094.876A4.233,4.233,0,0,1,56.439,70h-24a4.233,4.233,0,0,1-4.228-4.228,4.13,4.13,0,0,1,.094-0.876A46.838,46.838,0,0,1,.422,37.191l-0.43-1.151h88.9Zm-85.99.555A45.132,45.132,0,0,0,29.656,63.564l0.888,0.307-0.027.059H47.906v1.707H29.935c0,0.045-.015.09-0.015,0.135a2.524,2.524,0,0,0,2.521,2.521h24a2.509,2.509,0,0,0,2.287-3.569l-0.388-.853,0.886-.307A45.128,45.128,0,0,0,86.413,37.746H2.468ZM58.11,60.339l-0.557-1.614A40.169,40.169,0,0,0,78.795,41.572l1.462,0.882A41.886,41.886,0,0,1,58.11,60.339Z"/>
</svg>
