<svg xmlns="http://www.w3.org/2000/svg" width="90" height="65" viewBox="0 0 90 65">
  <defs>
    <style>
      .cls-1 {
        fill: #60ba62;
        fill-rule: evenodd;
      }
    </style>
  </defs>
  <path id="Meal-icon" class="cls-1" d="M88.979,65h-5.2a1.026,1.026,0,0,1-1.021-1.032V33.538a58,58,0,0,1-3.264-17.924c0-13.212,9.2-15.208,9.288-15.227A1.022,1.022,0,0,1,89.627.6,1.034,1.034,0,0,1,90,1.4V63.97A1.026,1.026,0,0,1,88.979,65ZM87.959,2.842c-2.163.988-6.424,4.041-6.424,12.773A56.561,56.561,0,0,0,84.5,32.322h3.459V2.842Zm0,31.543H84.8V62.939h3.16V34.385ZM46.851,64.044A31.759,31.759,0,1,1,78.285,32.287,31.632,31.632,0,0,1,46.851,64.044Zm0-61.453a29.7,29.7,0,1,0,29.392,29.7A29.578,29.578,0,0,0,46.851,2.592Zm0,49.685A19.991,19.991,0,1,1,66.637,32.287,19.911,19.911,0,0,1,46.851,52.277Zm0-37.917A17.928,17.928,0,1,0,64.6,32.287,17.857,17.857,0,0,0,46.851,14.359ZM8.923,21.988V32.322H10.5a1.026,1.026,0,0,1,1.021,1.031V63.97A1.026,1.026,0,0,1,10.5,65H5.3A1.026,1.026,0,0,1,4.281,63.97V33.354A1.026,1.026,0,0,1,5.3,32.322h1.58V21.988A7.511,7.511,0,0,1,0,14.133V1.04A1.026,1.026,0,0,1,1.019.008,1.026,1.026,0,0,1,2.04,1.04v9.778H4.613V1.04a1.021,1.021,0,1,1,2.042,0v9.778h2.5V1.04a1.021,1.021,0,1,1,2.042,0v9.778h2.573V1.04a1.021,1.021,0,1,1,2.042,0V14.133A7.511,7.511,0,0,1,8.923,21.988Zm-2.6,12.4V62.939h3.16V34.385H6.322Zm7.443-21.5H2.04v1.252A5.553,5.553,0,0,0,7.9,19.985a5.553,5.553,0,0,0,5.863-5.852V12.881Z"/>
</svg>
