<svg xmlns="http://www.w3.org/2000/svg" width="97" height="97" viewBox="0 0 97 97">
  <defs>
    <style>
      .cls-1 {
        fill: #fff;
        fill-rule: evenodd;
      }
    </style>
  </defs>
  <path id="Play-button" class="cls-1" d="M48.5,97A48.5,48.5,0,1,1,97,48.5,48.555,48.555,0,0,1,48.5,97Zm0-93.767A45.267,45.267,0,1,0,93.767,48.5,45.318,45.318,0,0,0,48.5,3.233Zm25.16,46.6L38.094,74.086a1.619,1.619,0,0,1-.91.281,1.619,1.619,0,0,1-1.617-1.617V24.25a1.616,1.616,0,0,1,2.527-1.336L73.66,47.165A1.615,1.615,0,0,1,73.66,49.835ZM38.8,27.311V69.689L69.88,48.5Z"/>
</svg>
