<?xml version="1.0" ?><svg contentScriptType="text/ecmascript" contentStyleType="text/css" enable-background="new 0 0 2048 2048" height="2048px" id="Layer_1" preserveAspectRatio="xMidYMid meet" version="1.1" viewBox="0.0 0 1664.0 2048" width="1664.0px" xml:space="preserve" xmlns="http://www.w3.org/2000/svg" xmlns:xlink="http://www.w3.org/1999/xlink" zoomAndPan="magnify"><path d="M640,1664c0,35.333-12.5,65.5-37.5,90.5S547.333,1792,512,1792s-65.5-12.5-90.5-37.5S384,1699.333,384,1664  s12.5-65.5,37.5-90.5s55.167-37.5,90.5-37.5s65.5,12.5,90.5,37.5S640,1628.667,640,1664z M1536,1664c0,35.333-12.5,65.5-37.5,90.5  s-55.167,37.5-90.5,37.5s-65.5-12.5-90.5-37.5s-37.5-55.167-37.5-90.5s12.5-65.5,37.5-90.5s55.167-37.5,90.5-37.5  s65.5,12.5,90.5,37.5S1536,1628.667,1536,1664z M1664,576v512c0,16-5.333,30.167-16,42.5s-24.333,19.5-41,21.5L563,1274  c0.667,4.667,2.167,11.833,4.5,21.5s4.333,18.5,6,26.5s2.5,15.333,2.5,22c0,10.667-8,32-24,64h920c17.333,0,32.333,6.333,45,19  s19,27.667,19,45s-6.333,32.333-19,45s-27.667,19-45,19H448c-17.333,0-32.333-6.333-45-19s-19-27.667-19-45  c0-9.333,3.667-22.5,11-39.5s17.167-36.833,29.5-59.5s19.167-35.333,20.5-38L268,512H64c-17.333,0-32.333-6.333-45-19  S0,465.333,0,448s6.333-32.333,19-45s27.667-19,45-19h256c10.667,0,20.167,2.167,28.5,6.5s15,9.5,20,15.5s9.333,14.167,13,24.5  s6.167,19.167,7.5,26.5s3.167,17.167,5.5,29.5s3.833,20.833,4.5,25.5h1201c17.333,0,32.333,6.333,45,19S1664,558.667,1664,576z"/></svg>